<svg width="50" height="50" viewBox="0 0 50 50" fill="none" xmlns="http://www.w3.org/2000/svg">
<path d="M13.8889 27.7778H36.1111C36.8981 27.7778 37.5574 27.5111 38.0889 26.9778C38.6222 26.4463 38.8889 25.787 38.8889 25C38.8889 24.213 38.6222 23.5528 38.0889 23.0194C37.5574 22.488 36.8981 22.2222 36.1111 22.2222H13.8889C13.1019 22.2222 12.4417 22.488 11.9083 23.0194C11.3769 23.5528 11.1111 24.213 11.1111 25C11.1111 25.787 11.3769 26.4463 11.9083 26.9778C12.4417 27.5111 13.1019 27.7778 13.8889 27.7778ZM5.55556 50C4.02778 50 2.71944 49.4565 1.63056 48.3694C0.543518 47.2806 0 45.9722 0 44.4444V5.55556C0 4.02778 0.543518 2.71944 1.63056 1.63056C2.71944 0.543518 4.02778 0 5.55556 0H44.4444C45.9722 0 47.2806 0.543518 48.3694 1.63056C49.4565 2.71944 50 4.02778 50 5.55556V44.4444C50 45.9722 49.4565 47.2806 48.3694 48.3694C47.2806 49.4565 45.9722 50 44.4444 50H5.55556Z" fill="#FBC400"/>
</svg>
